<svg xmlns="http://www.w3.org/2000/svg" xmlns:xlink="http://www.w3.org/1999/xlink" width="500" zoomAndPan="magnify" viewBox="0 0 375 374.999991" height="500" preserveAspectRatio="xMidYMid meet" version="1.0"><defs><clipPath id="id1"><path d="M 33.75 0 L 341.25 0 L 341.25 375 L 33.75 375 Z M 33.75 0 " clip-rule="nonzero"/></clipPath><clipPath id="id2"><path d="M 37.707031 214.082031 L 336.957031 214.082031 L 336.957031 374.664062 L 37.707031 374.664062 Z M 37.707031 214.082031 " clip-rule="nonzero"/></clipPath><clipPath id="id3"><path d="M 77.121094 78.363281 L 297.621094 78.363281 L 297.621094 296.613281 L 77.121094 296.613281 Z M 77.121094 78.363281 " clip-rule="nonzero"/></clipPath><clipPath id="id4"><path d="M 279.730469 78.363281 L 329.980469 78.363281 L 329.980469 128.613281 L 279.730469 128.613281 Z M 279.730469 78.363281 " clip-rule="nonzero"/></clipPath><clipPath id="id5"><path d="M 281.566406 80.195312 L 328.066406 80.195312 L 328.066406 126.695312 L 281.566406 126.695312 Z M 281.566406 80.195312 " clip-rule="nonzero"/></clipPath></defs><path fill="#006f85" d="M 187.425781 5.851562 C 161.21875 5.851562 39.402344 64.996094 39.402344 64.996094 L 39.402344 238.363281 C 39.402344 274.175781 55.628906 306.601562 81.953125 330.21875 C 81.96875 330.25 81.984375 330.261719 81.996094 330.261719 C 105.914062 350.589844 136.871094 362.871094 170.648438 362.871094 C 171.058594 362.871094 171.472656 362.871094 171.886719 362.855469 C 171.902344 362.871094 171.902344 362.871094 171.917969 362.855469 C 246.902344 362.1875 307.71875 300.960938 307.71875 225.796875 C 307.71875 222.25 310.582031 219.386719 314.128906 219.386719 C 317.660156 219.386719 320.539062 222.25 320.539062 225.796875 C 320.539062 275.117188 296.605469 318.9375 259.738281 346.273438 C 259.722656 346.285156 259.722656 346.285156 259.707031 346.285156 C 249.910156 353.554688 239.210938 359.648438 227.796875 364.363281 C 289.9375 348.808594 335.464844 298.292969 335.464844 238.363281 L 335.464844 64.996094 C 335.464844 64.996094 221.046875 5.851562 187.425781 5.851562 Z M 249.070312 221.015625 L 214.835938 221.015625 L 214.835938 255.261719 C 214.835938 269.164062 202.570312 280.433594 187.425781 280.433594 C 172.296875 280.433594 160.035156 269.164062 160.035156 255.261719 L 160.035156 221.015625 L 125.800781 221.015625 C 111.882812 221.015625 100.613281 208.75 100.613281 193.621094 C 100.613281 178.476562 111.882812 166.210938 125.800781 166.210938 L 160.035156 166.210938 L 160.035156 131.980469 C 160.035156 118.078125 172.296875 106.792969 187.425781 106.792969 C 202.570312 106.792969 214.835938 118.074219 214.835938 131.980469 L 214.835938 166.210938 L 249.070312 166.210938 C 262.972656 166.210938 274.242188 178.476562 274.242188 193.621094 C 274.242188 208.75 262.972656 221.015625 249.070312 221.015625 Z M 290.253906 122.136719 C 281.789062 113.660156 281.789062 99.941406 290.253906 91.480469 C 298.714844 83 312.433594 83 320.90625 91.480469 C 329.371094 99.941406 329.371094 113.660156 320.90625 122.136719 C 312.433594 130.597656 298.714844 130.582031 290.253906 122.136719 Z M 290.253906 122.136719 " fill-opacity="1" fill-rule="nonzero"/><g clip-path="url(#id1)"><path fill="#006f85" d="M 338.074219 59.941406 C 333.359375 57.492188 222.03125 0.164062 187.425781 0.164062 C 160.6875 0.164062 49.503906 53.757812 36.90625 59.867188 C 34.957031 60.824219 33.703125 62.804688 33.703125 65 L 33.703125 231.785156 C 35.386719 271.175781 53.792969 306.289062 81.953125 330.222656 C 81.96875 330.25 81.984375 330.261719 81.996094 330.261719 C 105.914062 350.59375 136.871094 362.871094 170.648438 362.871094 C 171.058594 362.871094 171.472656 362.871094 171.886719 362.855469 C 139.605469 359.808594 109.746094 347.214844 86.511719 326.675781 C 59.800781 303.054688 45.085938 271.699219 45.085938 238.367188 L 45.085938 68.558594 C 80.929688 51.292969 167.609375 11.546875 187.429688 11.546875 C 213.054688 11.546875 296.007812 51.207031 329.769531 68.457031 L 329.769531 238.363281 C 329.769531 271.683594 315.054688 303.039062 288.34375 326.671875 C 279.65625 334.351562 270.054688 340.902344 259.742188 346.273438 C 259.726562 346.289062 259.726562 346.289062 259.710938 346.289062 C 249.910156 353.554688 239.210938 359.648438 227.796875 364.367188 C 227.769531 364.378906 227.742188 364.394531 227.714844 364.394531 C 214.492188 369.863281 200.332031 373.5 185.53125 374.964844 C 186.160156 374.980469 186.800781 374.980469 187.425781 374.980469 C 187.441406 374.980469 187.441406 374.980469 187.441406 374.980469 C 228.367188 374.980469 266.890625 360.847656 295.878906 335.203125 C 325.082031 309.378906 341.148438 274.988281 341.148438 238.363281 L 341.148438 64.996094 C 341.148438 62.859375 339.96875 60.90625 338.074219 59.941406 Z M 338.074219 59.941406 " fill-opacity="1" fill-rule="nonzero"/></g><g clip-path="url(#id2)"><path fill="#006f85" d="M 336.957031 225.039062 C 336.957031 227.488281 336.898438 229.933594 336.777344 232.378906 C 336.65625 234.824219 336.476562 237.265625 336.234375 239.703125 C 335.996094 242.140625 335.695312 244.570312 335.335938 246.992188 C 334.976562 249.414062 334.558594 251.828125 334.082031 254.230469 C 333.605469 256.628906 333.066406 259.019531 332.472656 261.394531 C 331.878906 263.769531 331.226562 266.128906 330.515625 268.472656 C 329.804688 270.816406 329.035156 273.140625 328.210938 275.445312 C 327.386719 277.75 326.503906 280.035156 325.566406 282.296875 C 324.628906 284.558594 323.636719 286.796875 322.589844 289.011719 C 321.542969 291.226562 320.445312 293.410156 319.289062 295.570312 C 318.136719 297.730469 316.929688 299.859375 315.667969 301.960938 C 314.410156 304.0625 313.101562 306.128906 311.742188 308.164062 C 310.378906 310.203125 308.96875 312.203125 307.511719 314.171875 C 306.054688 316.136719 304.546875 318.066406 302.992188 319.960938 C 301.441406 321.851562 299.839844 323.707031 298.195312 325.519531 C 296.550781 327.335938 294.863281 329.109375 293.132812 330.839844 C 291.402344 332.570312 289.628906 334.257812 287.8125 335.902344 C 286 337.546875 284.144531 339.148438 282.253906 340.699219 C 280.359375 342.253906 278.429688 343.757812 276.464844 345.21875 C 274.496094 346.675781 272.496094 348.085938 270.457031 349.445312 C 268.421875 350.808594 266.355469 352.117188 264.253906 353.375 C 262.152344 354.636719 260.023438 355.839844 257.863281 356.996094 C 255.703125 358.148438 253.519531 359.25 251.304688 360.296875 C 249.089844 361.34375 246.851562 362.335938 244.589844 363.273438 C 242.328125 364.210938 240.042969 365.09375 237.738281 365.917969 C 235.433594 366.742188 233.109375 367.511719 230.765625 368.21875 C 228.421875 368.929688 226.0625 369.585938 223.6875 370.179688 C 221.3125 370.773438 218.921875 371.3125 216.523438 371.789062 C 214.121094 372.265625 211.707031 372.683594 209.285156 373.042969 C 206.863281 373.402344 204.433594 373.703125 201.996094 373.941406 C 199.5625 374.183594 197.121094 374.363281 194.671875 374.484375 C 192.226562 374.601562 189.78125 374.664062 187.332031 374.664062 C 184.882812 374.664062 182.4375 374.601562 179.988281 374.484375 C 177.542969 374.363281 175.101562 374.183594 172.664062 373.941406 C 170.230469 373.703125 167.800781 373.402344 165.378906 373.042969 C 162.953125 372.683594 160.542969 372.265625 158.140625 371.789062 C 155.738281 371.3125 153.351562 370.773438 150.976562 370.179688 C 148.601562 369.585938 146.242188 368.929688 143.898438 368.21875 C 141.554688 367.511719 139.230469 366.742188 136.925781 365.917969 C 134.617188 365.09375 132.335938 364.210938 130.074219 363.273438 C 127.808594 362.335938 125.574219 361.34375 123.359375 360.296875 C 121.144531 359.25 118.957031 358.148438 116.800781 356.996094 C 114.640625 355.839844 112.507812 354.636719 110.410156 353.375 C 108.308594 352.117188 106.242188 350.808594 104.203125 349.445312 C 102.167969 348.085938 100.167969 346.675781 98.199219 345.21875 C 96.234375 343.757812 94.304688 342.253906 92.410156 340.699219 C 90.519531 339.148438 88.664062 337.546875 86.851562 335.902344 C 85.035156 334.257812 83.261719 332.570312 81.53125 330.839844 C 79.800781 329.109375 78.113281 327.335938 76.46875 325.519531 C 74.824219 323.707031 73.222656 321.851562 71.671875 319.960938 C 70.117188 318.066406 68.609375 316.136719 67.152344 314.171875 C 65.691406 312.203125 64.285156 310.203125 62.921875 308.164062 C 61.5625 306.128906 60.253906 304.0625 58.992188 301.960938 C 57.734375 299.859375 56.527344 297.730469 55.375 295.570312 C 54.21875 293.410156 53.121094 291.226562 52.074219 289.011719 C 51.027344 286.796875 50.035156 284.558594 49.097656 282.296875 C 48.160156 280.035156 47.277344 277.75 46.453125 275.445312 C 45.628906 273.140625 44.859375 270.816406 44.148438 268.472656 C 43.4375 266.128906 42.785156 263.769531 42.191406 261.394531 C 41.597656 259.019531 41.058594 256.628906 40.582031 254.230469 C 40.105469 251.828125 39.6875 249.414062 39.328125 246.992188 C 38.96875 244.570312 38.667969 242.140625 38.425781 239.703125 C 38.1875 237.265625 38.007812 234.824219 37.886719 232.378906 C 37.765625 229.933594 37.707031 227.488281 37.707031 225.039062 C 37.707031 222.589844 37.765625 220.144531 37.886719 217.695312 C 38.007812 215.25 38.1875 212.808594 38.425781 210.371094 C 38.667969 207.9375 38.96875 205.507812 39.328125 203.085938 C 39.6875 200.660156 40.105469 198.25 40.582031 195.847656 C 41.058594 193.445312 41.597656 191.058594 42.191406 188.683594 C 42.785156 186.308594 43.4375 183.949219 44.148438 181.605469 C 44.859375 179.261719 45.628906 176.9375 46.453125 174.632812 C 47.277344 172.324219 48.160156 170.042969 49.097656 167.78125 C 50.035156 165.515625 51.027344 163.277344 52.074219 161.066406 C 53.121094 158.851562 54.21875 156.664062 55.375 154.503906 C 56.527344 152.347656 57.734375 150.214844 58.996094 148.117188 C 60.253906 146.015625 61.5625 143.949219 62.921875 141.910156 C 64.285156 139.875 65.691406 137.875 67.152344 135.90625 C 68.609375 133.941406 70.117188 132.011719 71.671875 130.117188 C 73.222656 128.222656 74.824219 126.371094 76.46875 124.554688 C 78.113281 122.742188 79.800781 120.96875 81.53125 119.238281 C 83.261719 117.507812 85.035156 115.816406 86.851562 114.171875 C 88.664062 112.527344 90.519531 110.929688 92.410156 109.375 C 94.304688 107.824219 96.234375 106.316406 98.199219 104.859375 C 100.167969 103.398438 102.167969 101.992188 104.203125 100.628906 C 106.242188 99.269531 108.308594 97.960938 110.410156 96.699219 C 112.507812 95.441406 114.640625 94.234375 116.800781 93.082031 C 118.957031 91.925781 121.144531 90.824219 123.359375 89.777344 C 125.574219 88.730469 127.808594 87.738281 130.074219 86.804688 C 132.335938 85.867188 134.617188 84.984375 136.925781 84.160156 C 139.230469 83.335938 141.554688 82.566406 143.898438 81.855469 C 146.242188 81.144531 148.601562 80.492188 150.976562 79.898438 C 153.351562 79.300781 155.738281 78.765625 158.140625 78.289062 C 160.542969 77.8125 162.953125 77.390625 165.378906 77.03125 C 167.800781 76.671875 170.230469 76.375 172.664062 76.132812 C 175.101562 75.894531 177.542969 75.714844 179.988281 75.59375 C 182.4375 75.472656 184.882812 75.414062 187.332031 75.414062 C 189.78125 75.414062 192.226562 75.472656 194.671875 75.59375 C 197.121094 75.714844 199.5625 75.894531 201.996094 76.132812 C 204.433594 76.375 206.863281 76.671875 209.285156 77.03125 C 211.707031 77.390625 214.121094 77.8125 216.523438 78.289062 C 218.921875 78.765625 221.3125 79.300781 223.6875 79.898438 C 226.0625 80.492188 228.421875 81.144531 230.765625 81.855469 C 233.109375 82.566406 235.433594 83.335938 237.738281 84.160156 C 240.042969 84.984375 242.328125 85.867188 244.589844 86.804688 C 246.851562 87.738281 249.089844 88.730469 251.304688 89.777344 C 253.519531 90.824219 255.703125 91.925781 257.863281 93.082031 C 260.023438 94.234375 262.152344 95.441406 264.253906 96.699219 C 266.355469 97.960938 268.421875 99.269531 270.457031 100.628906 C 272.496094 101.992188 274.496094 103.398438 276.464844 104.859375 C 278.429688 106.316406 280.359375 107.824219 282.253906 109.375 C 284.144531 110.929688 286 112.527344 287.8125 114.171875 C 289.628906 115.816406 291.402344 117.507812 293.132812 119.238281 C 294.863281 120.96875 296.550781 122.742188 298.195312 124.554688 C 299.839844 126.371094 301.441406 128.222656 302.992188 130.117188 C 304.546875 132.011719 306.054688 133.941406 307.511719 135.90625 C 308.96875 137.875 310.378906 139.875 311.742188 141.910156 C 313.101562 143.949219 314.410156 146.015625 315.667969 148.117188 C 316.929688 150.214844 318.136719 152.347656 319.289062 154.503906 C 320.445312 156.664062 321.542969 158.851562 322.589844 161.066406 C 323.636719 163.277344 324.628906 165.515625 325.566406 167.78125 C 326.503906 170.042969 327.386719 172.324219 328.210938 174.632812 C 329.035156 176.9375 329.804688 179.261719 330.515625 181.605469 C 331.226562 183.949219 331.878906 186.308594 332.472656 188.683594 C 333.066406 191.058594 333.605469 193.445312 334.082031 195.847656 C 334.558594 198.25 334.976562 200.660156 335.335938 203.085938 C 335.695312 205.507812 335.996094 207.9375 336.234375 210.371094 C 336.476562 212.808594 336.65625 215.25 336.777344 217.695312 C 336.898438 220.144531 336.957031 222.589844 336.957031 225.039062 Z M 336.957031 225.039062 " fill-opacity="1" fill-rule="nonzero"/></g><g clip-path="url(#id3)"><path fill="#ffffff" d="M 297.570312 187.5 C 297.570312 202.515625 285.039062 214.632812 270.167969 214.632812 L 214.796875 214.632812 L 214.796875 269.496094 C 214.796875 284.214844 202.539062 296.628906 187.390625 296.628906 C 172.226562 296.628906 159.984375 284.214844 159.984375 269.496094 L 159.984375 214.632812 L 104.59375 214.632812 C 89.722656 214.632812 77.195312 202.507812 77.195312 187.5 C 77.195312 172.492188 89.726562 160.367188 104.59375 160.367188 L 159.984375 160.367188 L 159.984375 105.5 C 159.984375 90.78125 172.230469 78.359375 187.390625 78.359375 C 202.539062 78.359375 214.796875 90.78125 214.796875 105.5 L 214.796875 160.367188 L 270.164062 160.367188 C 285.039062 160.367188 297.570312 172.492188 297.570312 187.5 " fill-opacity="1" fill-rule="evenodd"/></g><g clip-path="url(#id4)"><path fill="#ffffff" d="M 329.980469 103.488281 C 329.980469 104.308594 329.941406 105.128906 329.859375 105.949219 C 329.777344 106.769531 329.65625 107.582031 329.496094 108.386719 C 329.335938 109.195312 329.136719 109.992188 328.898438 110.78125 C 328.660156 111.566406 328.382812 112.339844 328.066406 113.101562 C 327.753906 113.863281 327.402344 114.605469 327.011719 115.332031 C 326.625 116.054688 326.203125 116.761719 325.746094 117.445312 C 325.289062 118.128906 324.800781 118.789062 324.277344 119.425781 C 323.753906 120.0625 323.203125 120.671875 322.621094 121.253906 C 322.039062 121.835938 321.429688 122.386719 320.792969 122.910156 C 320.160156 123.429688 319.5 123.921875 318.8125 124.378906 C 318.128906 124.835938 317.425781 125.257812 316.699219 125.644531 C 315.972656 126.03125 315.230469 126.382812 314.46875 126.699219 C 313.710938 127.015625 312.9375 127.289062 312.148438 127.53125 C 311.359375 127.769531 310.5625 127.96875 309.757812 128.128906 C 308.949219 128.289062 308.136719 128.410156 307.316406 128.492188 C 306.5 128.570312 305.679688 128.613281 304.855469 128.613281 C 304.03125 128.613281 303.210938 128.570312 302.394531 128.492188 C 301.574219 128.410156 300.761719 128.289062 299.953125 128.128906 C 299.148438 127.96875 298.347656 127.769531 297.5625 127.53125 C 296.773438 127.289062 296 127.015625 295.242188 126.699219 C 294.480469 126.382812 293.738281 126.03125 293.011719 125.644531 C 292.285156 125.257812 291.582031 124.835938 290.898438 124.378906 C 290.210938 123.921875 289.550781 123.429688 288.917969 122.910156 C 288.28125 122.386719 287.671875 121.835938 287.089844 121.253906 C 286.507812 120.671875 285.957031 120.0625 285.433594 119.425781 C 284.910156 118.789062 284.421875 118.128906 283.964844 117.445312 C 283.507812 116.761719 283.085938 116.054688 282.695312 115.332031 C 282.308594 114.605469 281.957031 113.863281 281.644531 113.101562 C 281.328125 112.339844 281.050781 111.566406 280.8125 110.78125 C 280.574219 109.992188 280.375 109.195312 280.214844 108.386719 C 280.050781 107.582031 279.933594 106.769531 279.851562 105.949219 C 279.769531 105.128906 279.730469 104.308594 279.730469 103.488281 C 279.730469 102.664062 279.769531 101.84375 279.851562 101.023438 C 279.933594 100.203125 280.050781 99.390625 280.214844 98.585938 C 280.375 97.777344 280.574219 96.980469 280.8125 96.191406 C 281.050781 95.40625 281.328125 94.632812 281.644531 93.871094 C 281.957031 93.109375 282.308594 92.367188 282.695312 91.644531 C 283.085938 90.917969 283.507812 90.210938 283.964844 89.527344 C 284.421875 88.84375 284.910156 88.183594 285.433594 87.546875 C 285.957031 86.910156 286.507812 86.300781 287.089844 85.71875 C 287.671875 85.136719 288.28125 84.585938 288.917969 84.066406 C 289.550781 83.542969 290.210938 83.054688 290.898438 82.597656 C 291.582031 82.136719 292.285156 81.714844 293.011719 81.328125 C 293.738281 80.941406 294.480469 80.589844 295.242188 80.273438 C 296 79.960938 296.773438 79.683594 297.5625 79.441406 C 298.347656 79.203125 299.148438 79.003906 299.953125 78.84375 C 300.761719 78.683594 301.574219 78.5625 302.394531 78.480469 C 303.210938 78.402344 304.03125 78.363281 304.855469 78.363281 C 305.679688 78.363281 306.5 78.402344 307.316406 78.480469 C 308.136719 78.5625 308.949219 78.683594 309.757812 78.84375 C 310.5625 79.003906 311.359375 79.203125 312.148438 79.441406 C 312.9375 79.683594 313.710938 79.960938 314.46875 80.273438 C 315.230469 80.589844 315.972656 80.941406 316.699219 81.328125 C 317.425781 81.714844 318.128906 82.136719 318.8125 82.597656 C 319.5 83.054688 320.160156 83.542969 320.792969 84.066406 C 321.429688 84.585938 322.039062 85.136719 322.621094 85.71875 C 323.203125 86.300781 323.753906 86.910156 324.277344 87.546875 C 324.800781 88.183594 325.289062 88.84375 325.746094 89.527344 C 326.203125 90.210938 326.625 90.917969 327.011719 91.644531 C 327.402344 92.367188 327.753906 93.109375 328.066406 93.871094 C 328.382812 94.632812 328.660156 95.40625 328.898438 96.191406 C 329.136719 96.980469 329.335938 97.777344 329.496094 98.585938 C 329.65625 99.390625 329.777344 100.203125 329.859375 101.023438 C 329.941406 101.84375 329.980469 102.664062 329.980469 103.488281 Z M 329.980469 103.488281 " fill-opacity="1" fill-rule="nonzero"/></g><g clip-path="url(#id5)"><path fill="#f6f6f6" d="M 328.066406 103.445312 C 328.066406 104.207031 328.027344 104.96875 327.953125 105.726562 C 327.878906 106.484375 327.765625 107.234375 327.617188 107.984375 C 327.46875 108.730469 327.285156 109.46875 327.0625 110.195312 C 326.84375 110.925781 326.585938 111.640625 326.296875 112.34375 C 326.003906 113.046875 325.679688 113.734375 325.320312 114.40625 C 324.960938 115.078125 324.570312 115.730469 324.148438 116.363281 C 323.722656 116.996094 323.269531 117.609375 322.789062 118.195312 C 322.304688 118.785156 321.792969 119.347656 321.253906 119.886719 C 320.71875 120.425781 320.152344 120.9375 319.566406 121.417969 C 318.976562 121.902344 318.367188 122.355469 317.734375 122.777344 C 317.097656 123.203125 316.445312 123.59375 315.777344 123.953125 C 315.105469 124.308594 314.417969 124.636719 313.714844 124.925781 C 313.007812 125.21875 312.292969 125.472656 311.566406 125.695312 C 310.835938 125.917969 310.097656 126.101562 309.351562 126.25 C 308.605469 126.398438 307.851562 126.511719 307.09375 126.585938 C 306.335938 126.660156 305.578125 126.695312 304.816406 126.695312 C 304.054688 126.695312 303.292969 126.660156 302.535156 126.585938 C 301.777344 126.511719 301.027344 126.398438 300.28125 126.25 C 299.53125 126.101562 298.796875 125.917969 298.066406 125.695312 C 297.335938 125.472656 296.621094 125.21875 295.917969 124.925781 C 295.214844 124.636719 294.527344 124.308594 293.855469 123.953125 C 293.183594 123.59375 292.53125 123.203125 291.898438 122.777344 C 291.265625 122.355469 290.65625 121.902344 290.066406 121.417969 C 289.476562 120.9375 288.914062 120.425781 288.375 119.886719 C 287.835938 119.347656 287.328125 118.785156 286.84375 118.195312 C 286.359375 117.609375 285.90625 116.996094 285.484375 116.363281 C 285.0625 115.730469 284.667969 115.078125 284.3125 114.40625 C 283.953125 113.734375 283.625 113.046875 283.335938 112.34375 C 283.042969 111.640625 282.789062 110.925781 282.566406 110.195312 C 282.34375 109.46875 282.160156 108.730469 282.011719 107.984375 C 281.863281 107.234375 281.753906 106.484375 281.675781 105.726562 C 281.601562 104.96875 281.566406 104.207031 281.566406 103.445312 C 281.566406 102.683594 281.601562 101.925781 281.675781 101.167969 C 281.753906 100.410156 281.863281 99.65625 282.011719 98.910156 C 282.160156 98.164062 282.34375 97.425781 282.566406 96.699219 C 282.789062 95.96875 283.042969 95.253906 283.335938 94.550781 C 283.625 93.847656 283.953125 93.160156 284.3125 92.488281 C 284.667969 91.816406 285.0625 91.164062 285.484375 90.53125 C 285.90625 89.898438 286.359375 89.285156 286.84375 88.695312 C 287.328125 88.109375 287.835938 87.542969 288.375 87.007812 C 288.914062 86.46875 289.476562 85.957031 290.066406 85.472656 C 290.65625 84.992188 291.265625 84.539062 291.898438 84.113281 C 292.53125 83.691406 293.183594 83.300781 293.855469 82.941406 C 294.527344 82.582031 295.214844 82.257812 295.917969 81.964844 C 296.621094 81.675781 297.335938 81.417969 298.066406 81.199219 C 298.796875 80.976562 299.53125 80.792969 300.28125 80.644531 C 301.027344 80.496094 301.777344 80.382812 302.535156 80.308594 C 303.292969 80.234375 304.054688 80.195312 304.816406 80.195312 C 305.578125 80.195312 306.335938 80.234375 307.09375 80.308594 C 307.851562 80.382812 308.605469 80.496094 309.351562 80.644531 C 310.097656 80.792969 310.835938 80.976562 311.566406 81.199219 C 312.292969 81.417969 313.007812 81.675781 313.714844 81.964844 C 314.417969 82.257812 315.105469 82.582031 315.777344 82.941406 C 316.445312 83.300781 317.097656 83.691406 317.734375 84.113281 C 318.367188 84.539062 318.976562 84.992188 319.566406 85.472656 C 320.152344 85.957031 320.71875 86.46875 321.253906 87.007812 C 321.792969 87.542969 322.304688 88.109375 322.789062 88.695312 C 323.269531 89.285156 323.722656 89.898438 324.148438 90.53125 C 324.570312 91.164062 324.960938 91.816406 325.320312 92.488281 C 325.679688 93.160156 326.003906 93.847656 326.296875 94.550781 C 326.585938 95.253906 326.84375 95.96875 327.066406 96.699219 C 327.285156 97.425781 327.46875 98.164062 327.617188 98.910156 C 327.765625 99.65625 327.878906 100.410156 327.953125 101.167969 C 328.027344 101.925781 328.066406 102.683594 328.066406 103.445312 Z M 328.066406 103.445312 " fill-opacity="1" fill-rule="nonzero"/></g></svg>